<?xml version="1.0" encoding="UTF-8"?>
<svg version="1.1" xmlns="http://www.w3.org/2000/svg" width="2000" height="2000">
<path d="M0 0 C660 0 1320 0 2000 0 C2000 660 2000 1320 2000 2000 C1340 2000 680 2000 0 2000 C0 1340 0 680 0 0 Z " fill="#FFFEFE" transform="translate(0,0)"/>
<path d="M0 0 C0.99200409 -0.00997513 1.98400818 -0.01995026 3.006073 -0.03022766 C4.08347748 -0.03089233 5.16088196 -0.03155701 6.27093506 -0.03224182 C7.41478668 -0.04056534 8.55863831 -0.04888885 9.7371521 -0.0574646 C13.52416385 -0.08158246 17.31100304 -0.09034251 21.0980835 -0.09693909 C23.74064179 -0.10590964 26.38319957 -0.11503157 29.02575684 -0.1242981 C34.57396075 -0.1416623 40.12212104 -0.14852204 45.67034912 -0.15138245 C52.04200061 -0.1549996 58.41316502 -0.18476207 64.78466821 -0.22678703 C70.28224547 -0.26175115 75.77966373 -0.27693548 81.27735114 -0.27762848 C84.54825222 -0.27841367 87.81855389 -0.2892424 91.0893631 -0.31562614 C114.97493258 -0.49282979 135.58103774 2.38862363 153.52386475 19.68040466 C164.39127541 31.26300608 172.15057141 47.17463593 171.9574585 63.27415466 C173.14706818 63.27263578 174.33667786 63.2711169 175.56233633 63.26955199 C227.98957464 63.20287659 280.41681668 63.14116542 332.84408569 63.1047821 C333.6377971 63.10422988 334.4315085 63.10367765 335.24927176 63.10310869 C352.49871585 63.09113708 369.7481604 63.08005635 386.99760564 63.06989335 C395.45671685 63.06490399 403.91582794 63.05971778 412.37493896 63.0544281 C413.6376145 63.05364355 413.6376145 63.05364355 414.92579863 63.05284314 C442.21093908 63.03579744 469.49604641 63.00575197 496.78116679 62.96896578 C524.81993206 62.93123217 552.85867899 62.90661213 580.89746922 62.8984947 C584.85765759 62.89734208 588.81784591 62.89603953 592.77803421 62.89464569 C593.55745685 62.894376 594.33687949 62.89410631 595.139921 62.89382844 C607.68700061 62.88910138 620.23402352 62.87054864 632.78108 62.84682653 C645.39480066 62.82327339 658.0084651 62.81428379 670.62220697 62.82014915 C677.45675589 62.82292385 684.29115292 62.81926294 691.12567139 62.79733276 C697.3819463 62.7778862 703.63794266 62.77687272 709.89423032 62.79055908 C712.15819429 62.79225096 714.42217554 62.78716104 716.68610542 62.77462193 C719.76400476 62.75856502 722.84089911 62.76722391 725.91878319 62.78196335 C726.79736388 62.77145529 727.67594457 62.76094724 728.58114892 62.75012076 C735.31904878 62.82301361 742.25214148 64.21545262 747.58206328 68.61524962 C752.32344672 73.92907468 754.22582418 79.46807956 754.12030029 86.4985199 C753.81653912 91.67612227 753.02631555 96.78846667 752.28018188 101.91792297 C749.86579199 118.61043254 747.84508084 135.34688713 745.87841797 152.09703064 C742.4070633 181.6552852 738.74311193 211.18768174 734.98741531 240.71112442 C734.58371404 243.88927038 734.18170711 247.06762642 733.78018188 250.24604797 C733.14366451 255.28262165 732.50271508 260.31861203 731.85830116 265.35418129 C731.62004909 267.22054926 731.38315582 269.08709128 731.14772606 270.95381737 C730.82218406 273.53199107 730.49131669 276.10942895 730.15911865 278.68675232 C730.02041682 279.79900633 730.02041682 279.79900633 729.87891293 280.93373013 C727.44092256 299.62286337 727.44092256 299.62286337 721.31459045 304.61209106 C716.10307255 307.99478624 711.41230059 309.39115161 705.31292725 310.35618591 C704.40020554 310.51512833 703.48748383 310.67407074 702.54710388 310.83782959 C699.68633328 311.3324879 696.82229446 311.80369117 693.9574585 312.27415466 C692.18972673 312.5774923 690.42230251 312.88262845 688.6552124 313.18968201 C684.15616822 313.96783616 679.65407548 314.72646714 675.15075684 315.47944641 C657.52111953 318.43041888 639.91916681 321.51539655 622.3324585 324.71165466 C604.93502013 327.87253018 587.51963943 330.90306971 570.0824585 333.83665466 C552.99343227 336.71169037 535.93069237 339.69612465 518.88775635 342.83256531 C503.90799136 345.58695303 488.90493614 348.17790304 473.88580322 350.70805359 C458.6817462 353.27179491 443.50278535 355.95568469 428.3324585 358.71165466 C410.72609913 361.90916559 393.10227402 364.98364067 375.4574585 367.96165466 C368.76017434 369.09240428 368.76017434 369.09240428 362.06292725 370.22337341 C361.00366531 370.40226608 359.94440338 370.58115875 358.8530426 370.76547241 C332.66457409 375.1943337 306.53391075 379.95752005 280.39640808 384.67579651 C277.42464167 385.21168122 274.45255688 385.74576849 271.48040771 386.27952576 C267.93896885 386.91566955 264.39906034 387.55937261 260.86029053 388.21018982 C259.33149542 388.48809607 257.8026877 388.76593289 256.27386475 389.04368591 C255.59677963 389.17023056 254.91969452 389.29677521 254.22209167 389.42715454 C250.75619742 390.05195283 247.47957874 390.4067551 243.9574585 390.27415466 C252.30560087 400.60867175 262.47173037 409.06841329 275.9574585 411.27415466 C278.13050395 411.36567016 280.30604657 411.40424971 282.48101616 411.40723324 C283.12556181 411.40947626 283.77010746 411.41171929 284.43418479 411.41403028 C286.59681646 411.42035368 288.75938762 411.41960697 290.92202759 411.41891479 C292.48720233 411.42204928 294.05237624 411.42562426 295.61754906 411.42960221 C299.92129402 411.43929826 304.2250257 411.4428504 308.52877998 411.44544518 C313.16979227 411.44933998 317.81079284 411.45897754 322.45179749 411.46800232 C330.49695472 411.48294359 338.54211102 411.49448733 346.58727646 411.50395012 C358.23560525 411.51782871 369.88391239 411.53901835 381.53222562 411.56237865 C400.45195958 411.60030584 419.37169748 411.63526535 438.29144287 411.66697693 C439.42410494 411.66887742 440.556767 411.67077791 441.72375216 411.672736 C457.78137884 411.69954159 473.83900856 411.72342194 489.89664151 411.746121 C491.02627166 411.7477183 492.15590181 411.7493156 493.31976318 411.7509613 C494.44801383 411.75255477 495.57626448 411.75414824 496.73870455 411.75578999 C515.57512788 411.78259109 534.41152824 411.81700622 553.24792683 411.85761505 C564.86023271 411.88234491 576.47251392 411.90069682 588.08484192 411.91077066 C596.05097774 411.91818239 604.01708044 411.93273991 611.98319428 411.9528349 C616.57435408 411.96418452 621.16546057 411.97236308 625.75663567 411.97182655 C629.96883378 411.97139553 634.18091229 411.98022479 638.39307965 411.99607635 C639.90798644 412.00019495 641.42290683 412.00105254 642.93781637 411.99811225 C655.86399622 411.97612499 669.06201875 412.35111418 681.1449585 417.39915466 C681.90051025 417.7069989 682.65606201 418.01484314 683.43450928 418.33201599 C700.68418744 425.62684794 713.20251098 437.91175275 721.9574585 454.27415466 C722.36480225 455.01923279 722.772146 455.76431091 723.1918335 456.53196716 C732.16058949 474.67645044 731.99924194 494.66863446 725.89105225 513.57493591 C721.58602618 525.66594971 714.91290614 535.15734761 705.9574585 544.27415466 C705.41734131 544.82716248 704.87722412 545.38017029 704.32073975 545.94993591 C688.06199339 561.14387772 666.76763016 565.05896909 645.33685303 564.39720154 C627.41294437 563.47029307 609.07209695 552.43434762 596.9262085 539.64134216 C582.64263051 522.46704006 576.00331293 501.52242924 577.9574585 479.27415466 C579.30348109 470.34943967 582.27932251 462.54996064 585.9574585 454.27415466 C541.0774585 454.27415466 496.1974585 454.27415466 449.9574585 454.27415466 C451.6074585 457.90415466 453.2574585 461.53415466 454.9574585 465.27415466 C461.16629169 484.28208427 458.9148488 505.01517899 450.1449585 522.77415466 C447.01650746 528.78851309 443.53073403 534.24061371 438.9574585 539.27415466 C438.30390381 540.01923279 437.65034912 540.76431091 436.97698975 541.53196716 C428.14527299 551.02324747 417.02500803 556.85794505 404.9574585 561.27415466 C404.01773193 561.62735779 403.07800537 561.98056091 402.10980225 562.34446716 C388.8904137 566.24312203 371.86174741 565.88415171 358.9574585 561.27415466 C357.96616943 560.9222406 356.97488037 560.57032654 355.95355225 560.20774841 C337.73715419 553.15849093 323.61555881 540.81801256 314.7699585 523.46165466 C314.28825195 522.52084045 314.28825195 522.52084045 313.79681396 521.5610199 C308.5290411 510.7927121 306.25364394 501.03351039 306.3949585 489.02415466 C306.40486816 487.11968567 306.40486816 487.11968567 306.41497803 485.17674255 C306.64771557 473.72356693 308.78995101 464.50625857 313.9574585 454.27415466 C312.35027954 454.31343079 312.35027954 454.31343079 310.71063232 454.35350037 C276.03777981 455.12573134 246.12597018 452.63101413 219.7699585 427.58665466 C208.15848391 415.3719866 199.98984933 401.410101 195.53948975 385.13743591 C195.3273584 384.36625931 195.11522705 383.5950827 194.89666748 382.80053711 C192.31891482 373.19667158 190.39473981 363.46058182 188.4574585 353.71165466 C188.08956529 351.88536255 187.72107655 350.0591903 187.35198975 348.23313904 C186.40859047 343.55729863 185.47395231 338.87975296 184.54171753 334.20167542 C183.94225019 331.1979511 183.33975679 328.19484695 182.73651123 325.19187927 C180.20664473 312.59006036 177.72255503 299.97996094 175.26678467 287.36351013 C171.74478497 269.27160142 168.16462597 251.20488922 164.2387085 233.19602966 C161.21981007 219.33245742 158.56206922 205.39279652 155.855896 191.46556091 C155.0778398 187.46414391 154.29915726 183.46284933 153.5199585 179.46165466 C153.32401093 178.45528961 153.12806335 177.44892456 152.92617798 176.4120636 C150.4020491 163.46508714 147.79575671 150.54517374 144.98724365 137.65647888 C142.72073856 127.25339498 140.6337979 116.81785126 138.57073975 106.37278748 C137.9430044 103.20112463 137.31047335 100.03045541 136.6762085 96.86009216 C136.46431885 95.80016052 136.2524292 94.74022888 136.03411865 93.6481781 C135.61157703 91.54160311 135.18681035 89.43547308 134.75970459 87.32981873 C133.76937467 82.43176347 132.81562122 77.53453415 131.965271 72.61009216 C129.84090121 59.4370489 129.84090121 59.4370489 122.9574585 48.27415466 C116.06068176 43.47508865 109.63068746 42.55536317 101.40838623 42.66233826 C99.74538986 42.65384102 99.74538986 42.65384102 98.04879761 42.64517212 C94.41253024 42.63175323 90.77727488 42.65255763 87.14105225 42.67259216 C84.59856996 42.6670875 82.05609213 42.65895885 79.5136261 42.64833069 C72.8375427 42.62549398 66.16185676 42.62959963 59.48577881 42.64213562 C48.79807999 42.66195735 38.11056172 42.65042884 27.42289925 42.61627579 C23.69984897 42.6101883 19.9772138 42.62341009 16.25419617 42.63825989 C13.96184178 42.6353109 11.66948815 42.63165563 9.37713623 42.62718201 C8.34986923 42.63647232 7.32260223 42.64576263 6.26420593 42.65533447 C-1.49577549 42.61263984 -7.82192001 41.40098018 -14.3550415 37.08665466 C-19.13449972 32.08489607 -21.25567263 27.68256829 -21.5425415 20.71165466 C-21.28050284 14.59178382 -19.63761139 10.9307191 -15.394104 6.58665466 C-10.69239613 2.31610777 -6.47889553 0.03510722 0 0 Z " fill="#FF3232" transform="translate(477.04254150390625,605.7258453369141)"/>
<path d="M0 0 C13.68329785 11.05434937 25.10131645 26.87890129 27.26074219 44.70849609 C28.32096741 58.55617057 27.64223483 70.84940456 22.26074219 83.70849609 C21.87660156 84.64822266 21.49246094 85.58794922 21.09667969 86.55615234 C13.8444206 102.51605584 -0.30095189 114.45738598 -16.22753906 121.18115234 C-37.89524707 129.30358278 -61.41691672 128.99085474 -82.73925781 119.70849609 C-100.22308112 111.13757538 -113.76232317 96.85997214 -120.11425781 78.33349609 C-125.84405909 60.2472538 -123.79372156 39.2726419 -115.20166016 22.49487305 C-111.38388999 15.57335616 -106.4653342 10.10391173 -100.73925781 4.70849609 C-99.94777344 3.95955078 -99.15628906 3.21060547 -98.34082031 2.43896484 C-71.98785536 -20.45572065 -27.7625531 -20.6153714 0 0 Z " fill="#FF3232" transform="translate(568.7392578125,1224.29150390625)"/>
<path d="M0 0 C10.56 0 21.12 0 32 0 C41.63633739 12.35965012 41.63633739 12.35965012 43.91796875 18.0078125 C46.73391508 24.55473072 50.12725982 30.42833105 53.9375 36.4375 C55.08140107 38.30398575 56.22198034 40.17251103 57.359375 42.04296875 C57.94138672 42.99478027 58.52339844 43.9465918 59.12304688 44.92724609 C60.45712017 47.11125318 61.78929714 49.29633191 63.11914062 51.48291016 C64.94747772 54.4890663 66.78011019 57.49256588 68.61550903 60.49441528 C69.66626392 62.21522197 70.71293587 63.93851965 71.75952148 65.66186523 C72.39962158 66.70673096 73.03972168 67.75159668 73.69921875 68.828125 C74.26471436 69.7552832 74.83020996 70.68244141 75.4128418 71.63769531 C76.80224794 73.70566852 78.16462027 75.33052834 80 77 C80.26159912 76.12738525 80.52319824 75.25477051 80.79272461 74.35571289 C81.99634821 71.01015042 83.44569435 68.32504368 85.31640625 65.30859375 C85.99002197 64.21297119 86.6636377 63.11734863 87.35766602 61.98852539 C87.71659943 61.41055206 88.07553284 60.83257874 88.44534302 60.23709106 C90.37270093 57.13237424 92.2796227 54.01515019 94.1875 50.8984375 C94.58332779 50.25264236 94.97915558 49.60684723 95.38697815 48.94148254 C100.41882388 40.71175815 105.26544208 32.37372055 110.11352539 24.03491211 C122.87955416 2.12044584 122.87955416 2.12044584 125 0 C135.56 0 146.12 0 157 0 C157 44.55 157 89.1 157 135 C145.45 135 133.9 135 122 135 C122 111.57 122 88.14 122 64 C121.34 64 120.68 64 120 64 C119.90283691 64.53923096 119.80567383 65.07846191 119.70556641 65.6340332 C118.79552958 68.68564804 117.33159206 71.11274045 115.7109375 73.85546875 C115.37607834 74.42645294 115.04121918 74.99743713 114.69621277 75.58572388 C112.83208527 78.75700793 110.94129774 81.91208036 109.04663086 85.06518555 C108.25585586 86.38430817 107.46557645 87.70372801 106.67578125 89.0234375 C106.27928879 89.68505386 105.88279633 90.34667023 105.47428894 91.02833557 C102.86105006 95.43095667 100.47106796 99.90557932 98.16796875 104.4765625 C89.69617865 120.8141198 89.69617865 120.8141198 84.59765625 123.05664062 C79.16968148 124.10627211 74.30255154 123.366637 69 122 C68.57332031 121.23300781 68.14664062 120.46601562 67.70703125 119.67578125 C63.09739152 111.49248268 58.25899905 103.47629266 53.27270508 95.5168457 C47.38061741 86.08632609 41.72572459 76.54287431 36 67 C35.67 89.44 35.34 111.88 35 135 C23.45 135 11.9 135 0 135 C0 90.45 0 45.9 0 0 Z " fill="#FF3232" transform="translate(1013,1213)"/>
<path d="M0 0 C52.8 0 105.6 0 160 0 C160 29.37 160 58.74 160 89 C148.594375 89.886875 137.18875 90.77375 125.4375 91.6875 C98.77017459 93.7736333 72.12346717 95.97877549 45.49584961 98.52612305 C44.43359161 98.62637283 43.37133362 98.72662262 42.27688599 98.82991028 C40.33900365 99.01312248 38.40144043 99.19976496 36.46432495 99.39091492 C30.94908219 99.91132528 25.54020243 100.0791908 20 100 C19.85045868 99.27512894 19.70091736 98.55025787 19.54684448 97.80342102 C18.10661308 90.82226811 16.66629986 83.84113208 15.22590446 76.86001301 C14.342911 72.58042053 13.45997555 68.30081608 12.57711411 64.02119637 C12.14768779 61.93972547 11.71816152 59.85827522 11.28863525 57.77682495 C10.71501445 54.99691895 10.14195502 52.21689802 9.5692749 49.4367981 C8.28660453 43.21289141 7.00041047 36.98981975 5.69521141 30.77059269 C5.27352151 28.76100474 4.85304618 26.75116621 4.43289185 24.74125671 C3.91509925 22.2669144 3.39481665 19.7930913 2.87155151 17.31990051 C2.63953033 16.20910629 2.40750916 15.09831207 2.16845703 13.95385742 C1.96608429 12.99283615 1.76371155 12.03181488 1.5552063 11.04167175 C0.88777862 7.38520041 0.46102298 3.68818387 0 0 Z " fill="#FFFEFE" transform="translate(658,711)"/>
<path d="M0 0 C2.86052264 2.27472412 5.49476705 4.61913617 8.07421875 7.20703125 C9.80542635 9.22713951 9.80542635 9.22713951 12 9 C13.34610787 7.80773303 14.65211395 6.5699934 15.9375 5.3125 C27.34286093 -5.096276 39.80931876 -5.69671954 54.47460938 -5.17480469 C64.79985419 -4.4601029 72.81891688 0.42483002 79.74609375 7.87890625 C86.48357174 16.19574317 89.13202223 25.61530667 89.11352539 36.17700195 C89.11367142 36.87998917 89.11381744 37.58297638 89.1139679 38.30726624 C89.11327441 40.61763659 89.10550857 42.92792508 89.09765625 45.23828125 C89.09579006 46.84539241 89.09436711 48.45250415 89.09336853 50.05961609 C89.08955915 54.27968937 89.07974239 58.49972797 89.06866455 62.7197876 C89.0566131 67.78843723 89.05204067 72.85709849 89.04621124 77.92575836 C89.03652976 85.61719632 89.01736217 93.30855827 89 101 C76.79 101 64.58 101 52 101 C51.96132813 94.19181641 51.96132813 94.19181641 51.921875 87.24609375 C51.89669205 84.36127256 51.87034834 81.47655473 51.83984375 78.59179688 C51.79159346 74.01847007 51.74751735 69.44538265 51.72900391 64.87182617 C51.7137985 61.18217741 51.67928574 57.49315722 51.63169098 53.80378914 C51.61691687 52.40013167 51.60896127 50.99638443 51.60811615 49.59264946 C51.68611846 39.0674887 51.68611846 39.0674887 47 30 C42.52270964 26.41816771 38.49986239 26.42414444 32.9453125 26.6015625 C28.40444476 27.21584434 25.96777399 28.55906553 23 32 C18.62766448 39.64454627 18.39917047 47.26568872 18.390625 55.8828125 C18.37408875 57.17822968 18.35755249 58.47364685 18.34051514 59.80831909 C18.29720782 63.21782399 18.27692523 66.62707347 18.26177979 70.0368042 C18.24207481 73.52989424 18.20033231 77.02272032 18.16015625 80.515625 C18.08320634 87.34391694 18.04249496 94.17106054 18 101 C6.12 101 -5.76 101 -18 101 C-18.03738281 96.85695313 -18.07476563 92.71390625 -18.11328125 88.4453125 C-18.15145617 85.11707502 -18.19252832 81.78890099 -18.2355423 78.46072388 C-18.2799845 74.96114336 -18.31946282 71.46167652 -18.34643555 67.96191406 C-18.37770696 63.93525735 -18.43248565 59.90920466 -18.48828125 55.8828125 C-18.49467117 54.64387238 -18.5010611 53.40493225 -18.50764465 52.12844849 C-18.64129695 44.15779403 -18.9210075 35.94495914 -24 29.4375 C-28.95932954 25.87298189 -35.16784107 26.36541276 -41 27 C-44.8610144 28.34177096 -47.1221835 30.4652347 -49.14654541 34.00460815 C-52.30136081 41.31237102 -52.60155083 47.99303514 -52.609375 55.8828125 C-52.62591125 57.17822968 -52.64244751 58.47364685 -52.65948486 59.80831909 C-52.70279218 63.21782399 -52.72307477 66.62707347 -52.73822021 70.0368042 C-52.75792519 73.52989424 -52.79966769 77.02272032 -52.83984375 80.515625 C-52.91679366 87.34391694 -52.95750504 94.17106054 -53 101 C-65.21 101 -77.42 101 -90 101 C-90 66.35 -90 31.7 -90 -4 C-78.12 -4 -66.24 -4 -54 -4 C-53.505 0.455 -53.505 0.455 -53 5 C-51.906875 4.0925 -50.81375 3.185 -49.6875 2.25 C-36.02193982 -7.7272775 -14.62917413 -8.89941426 0 0 Z " fill="#FF3333" transform="translate(704,1247)"/>
<path d="M0 0 C5.04442264 3.06930322 6.64214951 6.84361708 8.7421875 12.10546875 C9.07364777 12.90294022 9.40510803 13.70041168 9.74661255 14.52204895 C10.80280881 17.07191361 11.83915638 19.62930944 12.875 22.1875 C13.56250002 23.85665669 14.25129138 25.5252821 14.94140625 27.19335938 C15.44914078 28.42610847 15.44914078 28.42610847 15.96713257 29.6837616 C16.65109847 31.34134396 17.33846484 32.99752722 18.02920532 34.65229797 C19.69283268 38.66828103 21.25307867 42.67447318 22.61474609 46.8034668 C25.95177037 56.62622032 25.95177037 56.62622032 33.9296875 62.93359375 C36.22155114 63.83007835 38.53908563 64.66301461 40.875 65.4375 C42.7396064 66.1462642 44.60420135 66.85506212 46.46781921 67.56642151 C48.37208168 68.28162104 50.28459804 68.96722513 52.20263672 69.64453125 C57.06219747 71.36491675 61.85821366 73.24089498 66.65087891 75.13891602 C68.79018072 75.98418019 70.93680523 76.81121447 73.09130859 77.61694336 C78.51721472 79.7036568 82.28591195 81.47951288 86 86 C86.33 86.33 86.66 86.66 87 87 C87.39046555 92.07605219 87.01808591 94.89896109 84 99 C74.92110917 105.1576941 63.33471872 108.63878666 53.1875 112.6875 C50.70050483 113.68515196 48.21408423 114.68422189 45.7278595 115.68379211 C44.19465335 116.29964048 42.6609065 116.9141452 41.12651062 117.52702332 C39.7356673 118.08359026 38.34804574 118.64829432 36.96420288 119.2220459 C35.08158241 119.96768797 33.15224444 120.591946 31.22387695 121.2097168 C26.78547757 123.67444854 25.82752242 126.39776929 24.0625 131.0078125 C23.73386963 131.80669891 23.40523926 132.60558533 23.06665039 133.42868042 C22.02108581 135.98536405 21.01016555 138.55415283 20 141.125 C19.32258213 142.79909727 18.64291301 144.47228544 17.9609375 146.14453125 C15.61989448 151.90548502 13.3026956 157.67595396 11.03369141 163.46569824 C10.11426708 165.81131527 9.18290025 168.15190448 8.25 170.4921875 C7.98050537 171.19272247 7.71101074 171.89325745 7.43334961 172.61502075 C5.86353194 176.52475875 4.30423975 179.34210684 1 182 C-1.40234375 182.56640625 -1.40234375 182.56640625 -3.9375 182.5625 C-4.77152344 182.58441406 -5.60554688 182.60632813 -6.46484375 182.62890625 C-10.02115992 181.74667681 -11.86627104 179.85996113 -14 177 C-15.85528485 173.42410311 -17.31889549 169.71515071 -18.79296875 165.96875 C-19.22507156 164.9000769 -19.65717438 163.83140381 -20.10237122 162.73034668 C-21.47610073 159.32492102 -22.83199181 155.91271387 -24.1875 152.5 C-25.11015897 150.20395692 -26.03397482 147.90837836 -26.95898438 145.61328125 C-28.99461896 140.5556882 -31.01913315 135.49381262 -33.03385925 130.42785645 C-33.3526857 129.62666382 -33.67151215 128.82547119 -34 128 C-34.29063828 127.11441406 -34.58127655 126.22882813 -34.88072205 125.31640625 C-36.22522243 122.53389001 -37.05781515 122.05926311 -39.89208984 120.95117188 C-40.69407806 120.62733521 -41.49606628 120.30349854 -42.32235718 119.96984863 C-43.19308868 119.63948608 -44.06382019 119.30912354 -44.9609375 118.96875 C-45.86188141 118.61035034 -46.76282532 118.25195068 -47.69107056 117.88269043 C-50.5793105 116.73802712 -53.47658912 115.61862576 -56.375 114.5 C-58.28842324 113.7477776 -60.20119218 112.99388858 -62.11328125 112.23828125 C-65.77916559 110.79173849 -69.4470537 109.35052116 -73.1171875 107.91479492 C-77.13439337 106.34087015 -81.14935201 104.76402805 -85.1484375 103.14453125 C-86.02935059 102.78979736 -86.91026367 102.43506348 -87.81787109 102.06958008 C-91.50511858 100.26225951 -93.01173046 98.62149095 -95 95 C-95.83198595 91.1224875 -95.59980791 88.03692819 -93.57421875 84.53515625 C-89.93145191 80.9476666 -85.93202059 79.43495149 -81.25 77.5 C-80.25427979 77.0472168 -79.25855957 76.59443359 -78.23266602 76.12792969 C-72.92233585 73.77316281 -67.87202327 71.86486997 -62.15325928 70.75744629 C-52.58379201 68.86840408 -42.80088991 66.42661012 -36 59 C-27.14836863 45.54681284 -22.00132678 28.7607175 -17.21714783 13.46710205 C-14.18937312 4.15937972 -10.51852209 -1.50264601 0 0 Z " fill="#FFFDFD" transform="translate(1327,500)"/>
<path d="M0 0 C0 32.01 0 64.02 0 97 C-13.2 99.31 -26.4 101.62 -40 104 C-46.47947266 105.13501953 -46.47947266 105.13501953 -53.08984375 106.29296875 C-58.64648438 107.26367188 -58.64648438 107.26367188 -61.29760742 107.72631836 C-63.08450659 108.03848451 -64.87128725 108.35132968 -66.65795898 108.66479492 C-81.41640407 111.25332832 -96.19921815 113.66599259 -111 116 C-111.10751587 115.43292328 -111.21503174 114.86584656 -111.32580566 114.28158569 C-116.44699922 87.28915989 -121.6511882 60.32607399 -127.40625 33.4609375 C-127.68627844 32.14943125 -127.96623039 30.83790867 -128.24609375 29.52636719 C-128.71272626 27.34371177 -129.18329448 25.16188871 -129.66015625 22.98144531 C-129.84449219 22.11358398 -130.02882813 21.24572266 -130.21875 20.3515625 C-130.37279297 19.64080566 -130.52683594 18.93004883 -130.68554688 18.19775391 C-131.07843721 15.45179209 -131.01902259 12.77077008 -131 10 C-115.69209808 8.68999412 -100.38370622 7.38582852 -85.0747261 6.08848572 C-77.96543405 5.48588157 -70.85630971 4.88141594 -63.74755859 4.27246094 C-57.54668631 3.74128219 -51.34551955 3.21370512 -45.1439836 2.69032955 C-41.86478522 2.41345982 -38.58580505 2.13433435 -35.3070755 1.85195923 C-31.63381032 1.53591384 -27.96005778 1.22623654 -24.28613281 0.91796875 C-23.21653824 0.82446136 -22.14694366 0.73095398 -21.04493713 0.63461304 C-13.95652569 0.04860262 -7.16520122 0 0 0 Z " fill="#FFFEFE" transform="translate(818,841)"/>
<path d="M0 0 C0 26.4 0 52.8 0 80 C-29.33273564 85.31763044 -58.6750355 90.54005443 -88.06201172 95.54833984 C-90.38123767 95.9446783 -92.70041206 96.34131861 -95.01953125 96.73828125 C-96.12770203 96.92763245 -97.2358728 97.11698364 -98.37762451 97.31207275 C-106.40554027 98.69538253 -114.40876544 100.18837146 -122.39082336 101.81648254 C-123.17797226 101.97267563 -123.96512115 102.12886871 -124.77612305 102.28979492 C-125.45144577 102.4275383 -126.12676849 102.56528168 -126.82255554 102.7071991 C-129.52578648 103.0707025 -132.27243841 103 -135 103 C-135 72.31 -135 41.62 -135 10 C-117.08782149 8.44435174 -99.175232 6.89503209 -81.26092529 5.36437988 C-78.42546689 5.12203822 -75.59006083 4.87909725 -72.75469971 4.63562012 C-65.12320889 3.98042133 -57.49137929 3.32965578 -49.85854053 2.69032955 C-46.56283643 2.41420832 -43.26741628 2.13526176 -39.97232056 1.85195923 C-36.27111558 1.53424588 -32.56927993 1.22514567 -28.8671875 0.91796875 C-27.79944595 0.82446136 -26.73170441 0.73095398 -25.63160706 0.63461304 C-17.00308561 -0.06693373 -8.74795703 0 0 0 Z " fill="#FFFDFD" transform="translate(994,827)"/>
<path d="M0 0 C44.55 0 89.1 0 135 0 C135 24.75 135 49.5 135 75 C122.16314744 76.1669866 109.32845407 77.33333174 96.48492432 78.42066956 C95.54296455 78.50046114 94.60100479 78.58025272 93.63050079 78.66246223 C92.18144978 78.78507077 92.18144978 78.78507077 90.703125 78.91015625 C89.69767387 78.99533445 88.69222275 79.08051266 87.65630341 79.16827202 C82.35117785 79.61762795 77.0459812 80.06613305 71.74072266 80.51391602 C66.32624808 80.97109661 60.91203945 81.43135282 55.49788284 81.89228153 C51.26821382 82.25178799 47.03835023 82.60896444 42.80843353 82.96554375 C40.81365428 83.13409944 38.81894613 83.30349915 36.82431793 83.47383308 C34.02142795 83.71297534 31.21827205 83.94875472 28.41503906 84.18383789 C27.62599686 84.25190643 26.83695465 84.31997498 26.02400208 84.3901062 C17.35291741 85.1102121 8.6996172 85.51668793 0 86 C0 57.62 0 29.24 0 0 Z " fill="#FFFCFC" transform="translate(859,710)"/>
<path d="M0 0 C49.83 0 99.66 0 151 0 C151 10.125 151 10.125 150.44921875 14.61157227 C150.26903198 16.11210899 150.26903198 16.11210899 150.08520508 17.64295959 C149.9539624 18.69019699 149.82271973 19.73743439 149.6875 20.81640625 C149.55432373 21.91347397 149.42114746 23.01054169 149.28393555 24.14085388 C148.86098915 27.61537282 148.43061457 31.08892396 148 34.5625 C147.71044473 36.93027833 147.42137722 39.29811637 147.1328125 41.66601562 C146.42751574 47.444713 145.71613198 53.22263593 145 59 C127.86670566 60.4402822 110.73294216 61.87483231 93.59860611 63.30266571 C85.64184402 63.96584902 77.68524344 64.63086725 69.72900391 65.30029297 C62.78979309 65.88414268 55.85029721 66.46446022 48.91044497 67.04063749 C45.24001666 67.34549423 41.56974911 67.65205023 37.89981842 67.96284485 C33.79075078 68.31076164 29.68106501 68.65078663 25.57128906 68.99023438 C24.37078415 69.0930925 23.17027924 69.19595062 21.93339539 69.30192566 C20.79781693 69.39448135 19.66223846 69.48703705 18.49224854 69.58239746 C17.03765921 69.70407413 17.03765921 69.70407413 15.55368423 69.82820892 C10.37485431 70.07856228 5.18487764 70 0 70 C0 46.9 0 23.8 0 0 Z " fill="#FFFEFE" transform="translate(1035,711)"/>
<path d="M0 0 C-0.5525352 11.94261968 -2.00455093 23.72037038 -3.58398438 35.56518555 C-4.00422195 38.71918693 -4.41669874 41.87413515 -4.828125 45.02929688 C-5.09330273 47.04432974 -5.35891168 49.05930592 -5.625 51.07421875 C-5.74794434 52.01271164 -5.87088867 52.95120453 -5.99755859 53.9181366 C-6.11437988 54.79037369 -6.23120117 55.66261078 -6.3515625 56.5612793 C-6.50359131 57.70586861 -6.50359131 57.70586861 -6.65869141 58.87358093 C-6.99301483 60.95648101 -7.45655855 62.96261793 -8 65 C-9.16192871 65.1952124 -10.32385742 65.3904248 -11.52099609 65.59155273 C-34.72527413 69.49488891 -57.90959377 73.4894602 -81.0625 77.6875 C-94.98928921 80.21052719 -108.91639541 82.72088313 -122.875 85.0625 C-124.080354 85.26641357 -125.28570801 85.47032715 -126.52758789 85.68041992 C-128.1497522 85.9488269 -128.1497522 85.9488269 -129.8046875 86.22265625 C-131.18116455 86.45094116 -131.18116455 86.45094116 -132.58544922 86.68383789 C-135 87 -135 87 -139 87 C-139 61.92 -139 36.84 -139 11 C-121.77024124 8.70269883 -121.77024124 8.70269883 -114.65991211 8.16210938 C-113.84449951 8.09675491 -113.02908691 8.03140045 -112.18896484 7.96406555 C-109.55203629 7.75359187 -106.91471004 7.5486583 -104.27734375 7.34375 C-102.40089408 7.19484312 -100.5244756 7.04554273 -98.64808655 6.89587402 C-93.73981989 6.50524957 -88.83120804 6.11916023 -83.92248535 5.73431396 C-76.10855532 5.12093979 -68.29515524 4.5008349 -60.48176575 3.88061905 C-58.60043244 3.73143205 -56.71907469 3.58255296 -54.83769226 3.43398666 C-43.67218133 2.5521411 -32.50895669 1.66187385 -21.36399841 0.54382324 C-14.23401922 -0.15067521 -7.15930049 -0.20072805 0 0 Z " fill="#FFFDFD" transform="translate(1174,812)"/>
<path d="M0 0 C0.95648437 0.46921875 1.91296875 0.9384375 2.8984375 1.421875 C13.04749295 6.95772343 18.48667162 15.34673264 22.05319214 26.20704651 C23.01920457 30.07693435 23.24124163 33.33172147 23.22705078 37.31225586 C23.22734283 38.00578156 23.22763489 38.69930725 23.22793579 39.41384888 C23.22655474 41.68097941 23.21105222 43.94777142 23.1953125 46.21484375 C23.191578 47.79667481 23.18873309 49.3785082 23.18673706 50.96034241 C23.17913501 55.10481253 23.15951633 59.2491404 23.1373291 63.39355469 C23.1131805 68.37629507 23.10407335 73.35908327 23.09242249 78.34186554 C23.07308964 85.89467568 23.03474338 93.44717426 23 101 C11.78 101 0.56 101 -11 101 C-11.33 97.37 -11.66 93.74 -12 90 C-12.61875 90.886875 -13.2375 91.77375 -13.875 92.6875 C-18.86496722 98.66697913 -27.3854408 102.08575194 -35 103 C-48.40670761 104.00860648 -60.05110302 102.13714421 -70.91015625 93.84765625 C-77.15087464 88.3301613 -80.32924611 81.58688909 -81.3203125 73.33203125 C-81.67287839 64.99972415 -79.4830058 57.91884244 -74.4375 51.25 C-66.09340684 42.42731795 -53.66625846 39.24690477 -41.86816406 38.76318359 C-37.61874556 38.67318738 -33.37410572 38.735674 -29.125 38.8125 C-27.64714932 38.82759999 -26.16928341 38.84127884 -24.69140625 38.85351562 C-21.1272792 38.88604108 -17.56374304 38.93751754 -14 39 C-14.28230469 37.73929688 -14.56460937 36.47859375 -14.85546875 35.1796875 C-15.09366333 34.11596924 -15.09366333 34.11596924 -15.33666992 33.03076172 C-16.63291689 29.0623472 -19.48635978 26.81261592 -23.06640625 24.890625 C-27.26145135 23.61702942 -31.26207809 23.61730811 -35.625 23.625 C-36.96316772 23.62632935 -36.96316772 23.62632935 -38.32836914 23.62768555 C-46.318387 23.77089668 -52.85304962 25.28733321 -59.59765625 29.69921875 C-60.39042969 30.12847656 -61.18320313 30.55773438 -62 31 C-65 30 -65 30 -66.3503418 27.89868164 C-66.79547119 26.99496826 -67.24060059 26.09125488 -67.69921875 25.16015625 C-68.18583984 24.17982422 -68.67246094 23.19949219 -69.17382812 22.18945312 C-69.67333984 21.15755859 -70.17285156 20.12566406 -70.6875 19.0625 C-71.19861328 18.03447266 -71.70972656 17.00644531 -72.23632812 15.94726562 C-76 8.29429865 -76 8.29429865 -76 6 C-54.23046319 -6.4597349 -23.15357861 -11.60733492 0 0 Z " fill="#FF3232" transform="translate(1270,1247)"/>
<path d="M0 0 C3.33253804 2.0430127 6.17121917 4.30892858 9 7 C9.56332031 7.51175781 10.12664062 8.02351563 10.70703125 8.55078125 C19.03557631 17.0480057 21.13481621 29.60369534 21.11352539 41.03686523 C21.11367142 41.70113022 21.11381744 42.3653952 21.1139679 43.04978943 C21.11327785 45.21942549 21.10552854 47.38897291 21.09765625 49.55859375 C21.09578884 51.07316542 21.09436646 52.58773769 21.09336853 54.10231018 C21.0895688 58.06918027 21.07976051 62.03601316 21.06866455 66.00286865 C21.05658676 70.77287782 21.05203607 75.5428995 21.04621124 80.31291962 C21.03654718 87.5419722 21.0173729 94.77094333 21 102 C8.79 102 -3.42 102 -16 102 C-16.02578125 97.6171875 -16.0515625 93.234375 -16.078125 88.71875 C-16.10983674 85.20739602 -16.14548889 81.69613085 -16.18379211 78.18484497 C-16.22305069 74.48746934 -16.25548775 70.79033144 -16.27099609 67.09277344 C-16.28622464 63.52630417 -16.32077753 59.96048219 -16.36830902 56.39430237 C-16.3902009 54.38271962 -16.3924684 52.37095392 -16.39434814 50.35925293 C-16.50937574 43.12179673 -17.02881366 38.12464143 -21 32 C-25.68282562 27.600982 -30.76162604 27.58259603 -36.921875 27.671875 C-41.73214284 28.18464467 -44.55744129 29.66537196 -48 33 C-53.33115218 40.54299669 -53.73557376 47.89078814 -53.70703125 56.8828125 C-53.72215256 58.17822968 -53.73727386 59.47364685 -53.75285339 60.80831909 C-53.79238147 64.217925 -53.80287264 67.62699629 -53.80688477 71.0368042 C-53.81627784 74.52990359 -53.85346257 78.02270617 -53.88867188 81.515625 C-53.95549905 88.34414693 -53.97662634 95.17064059 -54 102 C-66.21 102 -78.42 102 -91 102 C-91 67.35 -91 32.7 -91 -3 C-79.45 -3 -67.9 -3 -56 -3 C-56 0.63 -56 4.26 -56 8 C-54.845 7.0925 -53.69 6.185 -52.5 5.25 C-37.74962105 -5.79975384 -16.82294795 -8.18283591 0 0 Z " fill="#FF3232" transform="translate(907,1246)"/>
<path d="M0 0 C12.21 0 24.42 0 37 0 C37 8.91 37 17.82 37 27 C44.92 27 52.84 27 61 27 C61 36.24 61 45.48 61 55 C53.08 55 45.16 55 37 55 C37.09697027 60.48137214 37.1997219 65.96199425 37.31738281 71.44287109 C37.3556459 73.30706162 37.39050346 75.1713253 37.421875 77.03564453 C37.46758356 79.71673716 37.52556822 82.39732733 37.5859375 85.078125 C37.59748871 85.91055725 37.60903992 86.7429895 37.62094116 87.60064697 C37.66955757 93.11932476 37.66955757 93.11932476 40 98 C43.19250176 100.12833451 44.0756089 100.2728223 47.75 100.25 C48.56984375 100.25515625 49.3896875 100.2603125 50.234375 100.265625 C53.64657476 99.9378996 56.73286334 99.01393896 60 98 C61.37158751 101.74385814 62.71919132 105.49591197 64.0625 109.25 C64.45244141 110.31347656 64.84238281 111.37695312 65.24414062 112.47265625 C65.60830078 113.49746094 65.97246094 114.52226563 66.34765625 115.578125 C66.68804932 116.52075195 67.02844238 117.46337891 67.37915039 118.43457031 C68.03159505 121.13055475 68.09136851 122.46675826 67 125 C64.671875 126.23046875 64.671875 126.23046875 61.75 127.1875 C60.79609375 127.51105469 59.8421875 127.83460937 58.859375 128.16796875 C46.21268672 131.84794772 31.21473332 131.21756172 19.18359375 125.7109375 C10.35341299 120.7891974 5.32757543 114.48116324 2 105 C0.27669647 98.40133255 -0.28053043 92.07050269 -0.1953125 85.2734375 C-0.1924826 84.39974518 -0.18965271 83.52605286 -0.18673706 82.62588501 C-0.17567303 79.87544186 -0.15059581 77.12534226 -0.125 74.375 C-0.11495234 72.49349433 -0.10582964 70.61198349 -0.09765625 68.73046875 C-0.07577912 64.15351643 -0.04134719 59.57681615 0 55 C-4.95 55 -9.9 55 -15 55 C-15 45.76 -15 36.52 -15 27 C-10.05 27 -5.1 27 0 27 C0 18.09 0 9.18 0 0 Z " fill="#FF3333" transform="translate(1409,1220)"/>
<path d="M0 0 C5.14234116 4.0818911 7.08775411 9.07450445 9.5 15.0625 C10.04720703 16.38024414 10.04720703 16.38024414 10.60546875 17.72460938 C11.15654297 19.05395508 11.15654297 19.05395508 11.71875 20.41015625 C12.10490479 21.31386963 12.49105957 22.21758301 12.88891602 23.14868164 C14 26 14 26 14.81225586 29.11499023 C16.51999017 34.85931105 16.51999017 34.85931105 20.57769775 39.10348511 C25.33919797 41.63610591 30.45033412 43.26880679 35.5625 44.9375 C37.84695125 45.71861004 40.12576796 46.51243528 42.39988708 47.32313538 C43.80773453 47.8213578 45.22227046 48.3012001 46.64369202 48.75926208 C51.11571497 50.29444353 53.48494908 51.98756916 56 56 C56.5625 59 56.5625 59 56 62 C52.40387895 66.37705039 49.48290805 67.78107914 44.0390625 69.1015625 C26.80166147 73.81465235 26.80166147 73.81465235 14.79556274 86.23394775 C10.69899297 94.3967558 7.72182779 103.03263285 5.09619141 111.76635742 C4 115 4 115 2 117 C-0.0234375 117.37109375 -0.0234375 117.37109375 -2.375 117.4375 C-3.53128906 117.49744141 -3.53128906 117.49744141 -4.7109375 117.55859375 C-8.10538728 116.73025532 -9.00301557 114.81718298 -11 112 C-12.07920433 109.79247501 -13.07977767 107.54544946 -14.015625 105.2734375 C-14.27631775 104.64394196 -14.5370105 104.01444641 -14.80560303 103.36587524 C-15.35059989 102.04469744 -15.89158371 100.72185768 -16.42871094 99.39746094 C-17.25205306 97.36994426 -18.08984081 95.34885297 -18.9296875 93.328125 C-23 83.4218316 -23 83.4218316 -23 80 C-24.22074219 79.60683594 -25.44148438 79.21367188 -26.69921875 78.80859375 C-32.81797796 76.76581238 -38.81347959 74.43044178 -44.8125 72.0625 C-46.48989258 71.41764648 -46.48989258 71.41764648 -48.20117188 70.75976562 C-49.27560547 70.33501953 -50.35003906 69.91027344 -51.45703125 69.47265625 C-52.42616455 69.09375244 -53.39529785 68.71484863 -54.39379883 68.32446289 C-57.20674637 66.89493217 -58.95506379 65.38886672 -61 63 C-61.53125 61 -61.53125 61 -61.5 59 C-61.5103125 58.34 -61.520625 57.68 -61.53125 57 C-60.75069494 54.06143979 -59.31374675 52.96678987 -57 51 C-54.5877679 49.91576684 -52.27000516 48.98715706 -49.78515625 48.1171875 C-48.36208405 47.58479091 -46.93957439 47.05088872 -45.51757812 46.515625 C-43.29335294 45.69051316 -41.06709596 44.87661791 -38.8293457 44.08886719 C-28.69582619 40.82718081 -28.69582619 40.82718081 -21.78125 33.27734375 C-21.1421497 31.53419316 -20.54913178 29.7735494 -20 28 C-19.23835061 26.12461334 -18.46594976 24.25356208 -17.68359375 22.38671875 C-16.5464756 19.51928909 -15.42197132 16.647458 -14.30664062 13.77148438 C-8.3623262 -1.16683621 -8.3623262 -1.16683621 0 0 Z " fill="#FFFCFC" transform="translate(1432,598)"/>
<path d="M0 0 C0 10.56 0 21.12 0 32 C-2.43375 32.061875 -4.8675 32.12375 -7.375 32.1875 C-15.72622892 32.5936156 -22.23040728 34.42371973 -28.4375 40.3125 C-32.99447551 48.15049789 -33.46267247 54.89527569 -33.51171875 63.8125 C-33.52966995 65.02196289 -33.54762115 66.23142578 -33.56611633 67.47753906 C-33.62004513 71.31832454 -33.65406014 75.15898695 -33.6875 79 C-33.72068834 81.61329831 -33.75517939 84.22658041 -33.79101562 86.83984375 C-33.87819962 93.22657854 -33.93842091 99.61276229 -34 106 C-46.21 106 -58.42 106 -71 106 C-71 71.35 -71 36.7 -71 1 C-59.12 1 -47.24 1 -35 1 C-35 4.63 -35 8.26 -35 12 C-34.33355469 11.46890625 -33.66710938 10.9378125 -32.98046875 10.390625 C-21.71462738 1.75610602 -14.85151293 0 0 0 Z " fill="#FF3434" transform="translate(1387,1242)"/>
<path d="M0 0 C9.90186653 5.97324987 15.00834159 13.67736852 18.6484375 24.59765625 C19.80815958 37.71451286 19.26244308 49.41547629 11.4609375 60.41015625 C4.2213829 69.00232402 -4.48839509 72.72504828 -15.51953125 73.94921875 C-25.49646715 74.40217402 -33.90559509 71.67286639 -41.7265625 65.41015625 C-48.48409565 58.96234337 -53.27581053 50.35610092 -53.65234375 40.953125 C-53.66684153 39.23052533 -53.67049509 37.50780492 -53.6640625 35.78515625 C-53.68017578 34.93373047 -53.69628906 34.08230469 -53.71289062 33.20507812 C-53.72102859 22.51992613 -50.05521677 13.62264315 -42.6875 5.83984375 C-31.03113266 -4.75201516 -14.14000305 -6.95378232 0 0 Z " fill="#FFFDFD" transform="translate(538.3515625,1245.40234375)"/>
<path d="M0 0 C5.04442264 3.06930322 6.64214951 6.84361708 8.7421875 12.10546875 C9.07364777 12.90294022 9.40510803 13.70041168 9.74661255 14.52204895 C10.80280881 17.07191361 11.83915638 19.62930944 12.875 22.1875 C13.56250002 23.85665669 14.25129138 25.5252821 14.94140625 27.19335938 C15.44914078 28.42610847 15.44914078 28.42610847 15.96713257 29.6837616 C16.65109847 31.34134396 17.33846484 32.99752722 18.02920532 34.65229797 C19.69283268 38.66828103 21.25307867 42.67447318 22.61474609 46.8034668 C25.95177037 56.62622032 25.95177037 56.62622032 33.9296875 62.93359375 C36.22155114 63.83007835 38.53908563 64.66301461 40.875 65.4375 C42.7396064 66.1462642 44.60420135 66.85506212 46.46781921 67.56642151 C48.37208168 68.28162104 50.28459804 68.96722513 52.20263672 69.64453125 C57.06219747 71.36491675 61.85821366 73.24089498 66.65087891 75.13891602 C68.79018072 75.98418019 70.93680523 76.81121447 73.09130859 77.61694336 C78.51721472 79.7036568 82.28591195 81.47951288 86 86 C86.33 86.33 86.66 86.66 87 87 C87.39046555 92.07605219 87.01808591 94.89896109 84 99 C74.92110917 105.1576941 63.33471872 108.63878666 53.1875 112.6875 C50.70050483 113.68515196 48.21408423 114.68422189 45.7278595 115.68379211 C44.19465335 116.29964048 42.6609065 116.9141452 41.12651062 117.52702332 C39.7356673 118.08359026 38.34804574 118.64829432 36.96420288 119.2220459 C35.08158241 119.96768797 33.15224444 120.591946 31.22387695 121.2097168 C26.78547757 123.67444854 25.82752242 126.39776929 24.0625 131.0078125 C23.73386963 131.80669891 23.40523926 132.60558533 23.06665039 133.42868042 C22.02108581 135.98536405 21.01016555 138.55415283 20 141.125 C19.32258213 142.79909727 18.64291301 144.47228544 17.9609375 146.14453125 C15.61989448 151.90548502 13.3026956 157.67595396 11.03369141 163.46569824 C10.11426708 165.81131527 9.18290025 168.15190448 8.25 170.4921875 C7.98050537 171.19272247 7.71101074 171.89325745 7.43334961 172.61502075 C5.86353194 176.52475875 4.30423975 179.34210684 1 182 C-1.40234375 182.56640625 -1.40234375 182.56640625 -3.9375 182.5625 C-4.77152344 182.58441406 -5.60554688 182.60632813 -6.46484375 182.62890625 C-10.02115992 181.74667681 -11.86627104 179.85996113 -14 177 C-15.85528485 173.42410311 -17.31889549 169.71515071 -18.79296875 165.96875 C-19.22507156 164.9000769 -19.65717438 163.83140381 -20.10237122 162.73034668 C-21.47610073 159.32492102 -22.83199181 155.91271387 -24.1875 152.5 C-25.11015897 150.20395692 -26.03397482 147.90837836 -26.95898438 145.61328125 C-28.99461896 140.5556882 -31.01913315 135.49381262 -33.03385925 130.42785645 C-33.3526857 129.62666382 -33.67151215 128.82547119 -34 128 C-34.29063828 127.11441406 -34.58127655 126.22882813 -34.88072205 125.31640625 C-36.22522243 122.53389001 -37.05781515 122.05926311 -39.89208984 120.95117188 C-40.69407806 120.62733521 -41.49606628 120.30349854 -42.32235718 119.96984863 C-43.19308868 119.63948608 -44.06382019 119.30912354 -44.9609375 118.96875 C-45.86188141 118.61035034 -46.76282532 118.25195068 -47.69107056 117.88269043 C-50.5793105 116.73802712 -53.47658912 115.61862576 -56.375 114.5 C-58.28842324 113.7477776 -60.20119218 112.99388858 -62.11328125 112.23828125 C-65.77916559 110.79173849 -69.4470537 109.35052116 -73.1171875 107.91479492 C-77.13439337 106.34087015 -81.14935201 104.76402805 -85.1484375 103.14453125 C-86.02935059 102.78979736 -86.91026367 102.43506348 -87.81787109 102.06958008 C-91.50511858 100.26225951 -93.01173046 98.62149095 -95 95 C-95.83198595 91.1224875 -95.59980791 88.03692819 -93.57421875 84.53515625 C-89.93145191 80.9476666 -85.93202059 79.43495149 -81.25 77.5 C-80.25427979 77.0472168 -79.25855957 76.59443359 -78.23266602 76.12792969 C-72.92233585 73.77316281 -67.87202327 71.86486997 -62.15325928 70.75744629 C-52.58379201 68.86840408 -42.80088991 66.42661012 -36 59 C-27.14836863 45.54681284 -22.00132678 28.7607175 -17.21714783 13.46710205 C-14.18937312 4.15937972 -10.51852209 -1.50264601 0 0 Z M-6 8 C-10.43479545 15.88056575 -13.5991594 23.52163408 -16.06640625 32.2109375 C-25.19174771 62.91403098 -25.19174771 62.91403098 -36.49919128 69.82263184 C-44.19715423 73.8699947 -52.41565804 76.5690997 -60.78007507 78.87976074 C-69.87276144 81.39178023 -78.39227236 85.18111257 -87 89 C-87 90.32 -87 91.64 -87 93 C-78.56767394 97.68873419 -70.47560204 101.36475705 -61.1015625 103.734375 C-33.43725783 111.18073949 -33.43725783 111.18073949 -26.44238281 121.84765625 C-20.41364922 132.54945487 -16.80079488 144.39211295 -13.42382812 156.14648438 C-10.99011401 164.90922843 -10.99011401 164.90922843 -7 173 C-4.94178746 173.85976677 -4.94178746 173.85976677 -3 174 C1.43690007 167.43658567 4.39856377 160.6631996 7.3125 153.3125 C7.78598877 152.13308838 8.25947754 150.95367676 8.74731445 149.73852539 C11.77830745 142.15823217 14.75929585 134.55808913 17.6875 126.9375 C18.02628174 126.05811768 18.36506348 125.17873535 18.71411133 124.27270508 C19.170802 123.06843872 19.170802 123.06843872 19.63671875 121.83984375 C19.90186279 121.14238037 20.16700684 120.44491699 20.44018555 119.72631836 C21.10282284 117.98539162 21.10282284 117.98539162 21 116 C21.65814697 115.90033936 22.31629395 115.80067871 22.99438477 115.69799805 C26.85968247 114.80035479 30.43093519 113.33656281 34.08984375 111.83203125 C34.87081924 111.51473557 35.65179474 111.19743988 36.45643616 110.87052917 C38.11055026 110.19756573 39.76380761 109.52249307 41.41625977 108.84545898 C43.89618291 107.82942772 46.37846604 106.8193719 48.86132812 105.81054688 C52.83486907 104.19395937 56.80036461 102.55858958 60.76385498 100.9175415 C62.91748328 100.0338585 65.07861292 99.17171651 67.24267578 98.31396484 C68.5174112 97.79694033 69.79199769 97.27954841 71.06640625 96.76171875 C72.72265015 96.10175903 72.72265015 96.10175903 74.41235352 95.4284668 C77.20352283 93.88764864 77.97837469 92.96735173 79 90 C72.43658567 85.56309993 65.6631996 82.60143623 58.3125 79.6875 C57.13308838 79.21401123 55.95367676 78.74052246 54.73852539 78.25268555 C47.15823217 75.22169255 39.55808913 72.24070415 31.9375 69.3125 C31.05811768 68.97371826 30.17873535 68.63493652 29.27270508 68.28588867 C28.06843872 67.829198 28.06843872 67.829198 26.83984375 67.36328125 C26.14238037 67.09813721 25.44491699 66.83299316 24.72631836 66.55981445 C22.98539162 65.89717716 22.98539162 65.89717716 21 66 C20.59531494 64.74372803 20.19062988 63.48745605 19.77368164 62.19311523 C17.93351117 56.67825203 15.79735666 51.29960325 13.62109375 45.91015625 C13.20835709 44.88442001 12.79562042 43.85868378 12.37037659 42.80186462 C11.50363184 40.65078253 10.63544096 38.50028261 9.76586914 36.3503418 C8.43256945 33.0502964 7.10772 29.74693806 5.78320312 26.44335938 C4.93801195 24.34875168 4.09232644 22.25434338 3.24609375 20.16015625 C2.85022568 19.17064468 2.4543576 18.18113312 2.04649353 17.16163635 C1.67593338 16.2498613 1.30537323 15.33808624 0.92358398 14.39868164 C0.59954086 13.59531876 0.27549774 12.79195587 -0.05836487 11.96424866 C-0.94706555 9.83163034 -0.94706555 9.83163034 -3 8 C-3.99 8 -4.98 8 -6 8 Z " fill="#FF3636" transform="translate(1327,500)"/>
<path d="M0 0 C12.21 0 24.42 0 37 0 C37 34.65 37 69.3 37 105 C24.79 105 12.58 105 0 105 C0 70.35 0 35.7 0 0 Z " fill="#FF3434" transform="translate(950,1243)"/>
<path d="M0 0 C9.78791463 5.57824515 15.98608283 12.60721334 19.5078125 23.41015625 C21.90286926 33.16432594 19.77891822 41.43820659 15.20703125 50.2578125 C9.67945285 58.79811262 1.70142989 63.09301295 -7.79296875 66.2578125 C-19.24426698 67.53501687 -27.21498351 65.74572795 -36.79296875 59.2578125 C-43.94727734 53.11682748 -48.31776054 44.93624984 -49.1015625 35.5703125 C-49.55003955 24.64297215 -48.18323827 16.50467524 -40.77734375 7.921875 C-29.67209288 -2.82385336 -14.41465775 -6.83680285 0 0 Z " fill="#FFFDFD" transform="translate(1145.79296875,1062.7421875)"/>
<path d="M0 0 C9.57403649 5.2024953 15.31832157 11.83973751 19.1875 22.05078125 C21.81929906 31.21549743 19.92477175 39.5661852 16.0703125 48.125 C12.61433072 54.2087549 7.95999105 58.43165798 2.0703125 62.125 C1.42707031 62.54007813 0.78382813 62.95515625 0.12109375 63.3828125 C-7.24890441 67.39770674 -16.8760598 67.88553948 -24.90917969 65.54931641 C-32.75382672 62.61705521 -39.40369898 58.25532829 -43.9296875 51.125 C-44.43242188 50.33609375 -44.93515625 49.5471875 -45.453125 48.734375 C-50.18783979 39.99738748 -50.20896338 30.53727104 -48.30078125 20.97265625 C-45.24329595 11.1969297 -39.17944867 5.03122127 -30.3671875 0.0625 C-20.57956936 -4.73579423 -9.82341719 -4.6685547 0 0 Z " fill="#FFFDFD" transform="translate(873.9296875,1062.875)"/>
<path d="M0 0 C5.14234116 4.0818911 7.08775411 9.07450445 9.5 15.0625 C10.04720703 16.38024414 10.04720703 16.38024414 10.60546875 17.72460938 C11.15654297 19.05395508 11.15654297 19.05395508 11.71875 20.41015625 C12.10490479 21.31386963 12.49105957 22.21758301 12.88891602 23.14868164 C14 26 14 26 14.81225586 29.11499023 C16.51999017 34.85931105 16.51999017 34.85931105 20.57769775 39.10348511 C25.33919797 41.63610591 30.45033412 43.26880679 35.5625 44.9375 C37.84695125 45.71861004 40.12576796 46.51243528 42.39988708 47.32313538 C43.80773453 47.8213578 45.22227046 48.3012001 46.64369202 48.75926208 C51.11571497 50.29444353 53.48494908 51.98756916 56 56 C56.5625 59 56.5625 59 56 62 C52.40387895 66.37705039 49.48290805 67.78107914 44.0390625 69.1015625 C26.80166147 73.81465235 26.80166147 73.81465235 14.79556274 86.23394775 C10.69899297 94.3967558 7.72182779 103.03263285 5.09619141 111.76635742 C4 115 4 115 2 117 C-0.0234375 117.37109375 -0.0234375 117.37109375 -2.375 117.4375 C-3.53128906 117.49744141 -3.53128906 117.49744141 -4.7109375 117.55859375 C-8.10538728 116.73025532 -9.00301557 114.81718298 -11 112 C-12.07920433 109.79247501 -13.07977767 107.54544946 -14.015625 105.2734375 C-14.27631775 104.64394196 -14.5370105 104.01444641 -14.80560303 103.36587524 C-15.35059989 102.04469744 -15.89158371 100.72185768 -16.42871094 99.39746094 C-17.25205306 97.36994426 -18.08984081 95.34885297 -18.9296875 93.328125 C-23 83.4218316 -23 83.4218316 -23 80 C-24.22074219 79.60683594 -25.44148438 79.21367188 -26.69921875 78.80859375 C-32.81797796 76.76581238 -38.81347959 74.43044178 -44.8125 72.0625 C-46.48989258 71.41764648 -46.48989258 71.41764648 -48.20117188 70.75976562 C-49.27560547 70.33501953 -50.35003906 69.91027344 -51.45703125 69.47265625 C-52.42616455 69.09375244 -53.39529785 68.71484863 -54.39379883 68.32446289 C-57.20674637 66.89493217 -58.95506379 65.38886672 -61 63 C-61.53125 61 -61.53125 61 -61.5 59 C-61.5103125 58.34 -61.520625 57.68 -61.53125 57 C-60.75069494 54.06143979 -59.31374675 52.96678987 -57 51 C-54.5877679 49.91576684 -52.27000516 48.98715706 -49.78515625 48.1171875 C-48.36208405 47.58479091 -46.93957439 47.05088872 -45.51757812 46.515625 C-43.29335294 45.69051316 -41.06709596 44.87661791 -38.8293457 44.08886719 C-28.69582619 40.82718081 -28.69582619 40.82718081 -21.78125 33.27734375 C-21.1421497 31.53419316 -20.54913178 29.7735494 -20 28 C-19.23835061 26.12461334 -18.46594976 24.25356208 -17.68359375 22.38671875 C-16.5464756 19.51928909 -15.42197132 16.647458 -14.30664062 13.77148438 C-8.3623262 -1.16683621 -8.3623262 -1.16683621 0 0 Z M-3 9 C-5.91673622 14.20814736 -8.1639938 19.10271872 -9.4453125 24.953125 C-13.36124191 40.67737277 -13.36124191 40.67737277 -19.81884766 45.30279541 C-30.01256696 51.27430506 -41.71409867 54.71707475 -53 58 C-53 58.66 -53 59.32 -53 60 C-51.50388184 60.40835083 -51.50388184 60.40835083 -49.97753906 60.82495117 C-20.11836913 69.29222286 -20.11836913 69.29222286 -14.09417725 79.26448059 C-10.7373804 85.77933984 -8.60301118 92.77094393 -6.88671875 99.87890625 C-5.95002651 103.17589788 -4.61801031 105.98605923 -3 109 C-0.16540893 105.67601272 1.07041516 102.37728344 2.4609375 98.2578125 C2.9362861 96.93008613 3.41423689 95.60328905 3.89453125 94.27734375 C4.63991383 92.2083572 5.37023655 90.13948813 6.05712891 88.05029297 C9.87009026 76.55127619 9.87009026 76.55127619 14.89819336 72.88916016 C18.21893181 71.33923486 21.51775981 70.13661997 25 69 C27.03342556 68.16306401 29.0611214 67.3120332 31.08203125 66.4453125 C32.99094212 65.66880638 34.90108809 64.89532913 36.8125 64.125 C37.80314453 63.7228125 38.79378906 63.320625 39.81445312 62.90625 C42.20853362 61.93473907 44.60369489 60.96600747 47 60 C47 59.34 47 58.68 47 58 C42.83449687 56.22642093 38.6673927 54.45663405 34.5 52.6875 C32.74042969 51.93823242 32.74042969 51.93823242 30.9453125 51.17382812 C29.79804687 50.68720703 28.65078125 50.20058594 27.46875 49.69921875 C26.34815186 49.21275879 25.22755371 48.72629883 24.07299805 48.22509766 C21.5207942 47.20762257 19.21182774 46.59623961 16.55078125 46.00390625 C12.52220699 44.52420656 11.46599049 41.58124763 9.69921875 37.828125 C8.64284583 35.32132064 7.66239218 32.78937262 6.6875 30.25 C6.17389685 28.97288016 5.65764134 27.69682362 5.13867188 26.421875 C4.18070222 24.05941679 3.2422309 21.69245485 2.31518555 19.31738281 C0.93953219 15.84747789 -0.51588987 12.42466077 -2 9 C-2.33 9 -2.66 9 -3 9 Z " fill="#FF3636" transform="translate(1432,598)"/>
<path d="M0 0 C4.03672657 1.08126605 4.39577993 1.50079228 6.5 4.9375 C7.62957535 7.47148656 8.6857524 9.98021731 9.6875 12.5625 C9.96013672 13.243125 10.23277344 13.92375 10.51367188 14.625 C12.5 19.66300517 12.5 19.66300517 12.5 21.9375 C13.10585937 22.09605469 13.71171875 22.25460937 14.3359375 22.41796875 C30.48488665 26.91482997 30.48488665 26.91482997 34.5 32.9375 C34.29283585 35.69968873 33.97773676 37.36606324 32.18676758 39.50830078 C30.35080879 41.0639098 28.9932254 41.62583447 26.69921875 42.3046875 C17.85364052 45.05081532 17.85364052 45.05081532 11.15234375 51.07421875 C9.70189475 54.32752763 8.57410442 57.54449573 7.5 60.9375 C4.94370861 66.49379139 4.94370861 66.49379139 2.5 68.9375 C-2.7965587 69.50096369 -2.7965587 69.50096369 -5.0949707 67.65991211 C-6.60262623 65.81169148 -7.28249999 64.31807504 -8.04296875 62.06640625 C-8.31302734 61.32712891 -8.58308594 60.58785156 -8.86132812 59.82617188 C-9.40871959 58.2849349 -9.94022807 56.73795734 -10.45507812 55.18554688 C-12.01738491 51.00118673 -13.27876366 48.62848467 -17.33984375 46.5625 C-18.71524784 45.99271472 -20.10204399 45.44946744 -21.5 44.9375 C-22.60085938 44.48246094 -23.70171875 44.02742187 -24.8359375 43.55859375 C-26.8764292 42.76390354 -28.91811677 41.9722777 -30.9609375 41.18359375 C-33.5 39.9375 -33.5 39.9375 -35.5 36.9375 C-35.9375 34.5 -35.9375 34.5 -35.5 31.9375 C-31.84540181 28.50231484 -27.97215768 26.6200631 -23.375 24.6875 C-22.75496094 24.419375 -22.13492187 24.15125 -21.49609375 23.875 C-18.65918126 22.67922613 -16.61050544 21.9375 -13.5 21.9375 C-13.39429688 21.25945313 -13.28859375 20.58140625 -13.1796875 19.8828125 C-12.36464826 16.35097578 -11.0557783 13.12771801 -9.625 9.8125 C-9.36847656 9.19246094 -9.11195312 8.57242187 -8.84765625 7.93359375 C-5.41106749 -0.09662621 -5.41106749 -0.09662621 0 0 Z " fill="#FF3535" transform="translate(1413.5,497.0625)"/>
<path d="M0 0 C4.64545495 2.77953054 7.65463617 5.81323144 9.375 11 C10.4751346 17.25968059 10.18994837 22.48719545 6.875 28 C2.97701779 33.11089354 -1.69022334 35.02174111 -7.625 37 C-15.71359374 37.9420991 -21.89912254 36.65358008 -28.625 32 C-32.27073092 28.64760375 -34.37857232 25.37626693 -34.8984375 20.36328125 C-35.09973953 14.31647786 -35.00451463 9.63687675 -31.27734375 4.69140625 C-23.04049905 -3.74016291 -10.63452934 -4.67347029 0 0 Z " fill="#FF3333" transform="translate(981.625,1195)"/>
<path d="M0 0 C0.66 0 1.32 0 2 0 C2.2475 1.00160156 2.495 2.00320313 2.75 3.03515625 C4.54778488 9.15084886 6.1109851 14.34087499 11.9609375 17.5546875 C15.87472862 19.35361363 19.88308771 20.74341276 24 22 C21.38910207 25.28438043 18.64983193 25.70800268 14.6875 26.75 C10.36556719 28.29010969 7.90383155 29.52115704 5.8828125 33.625 C4.77884661 36.30537132 3.89451388 39.02505323 3.05078125 41.796875 C2.70402344 42.85390625 2.35726563 43.9109375 2 45 C1.01 45.495 1.01 45.495 0 46 C-1.00419637 43.5433053 -2.00350501 41.08481647 -3 38.625 C-3.42925781 37.57699219 -3.42925781 37.57699219 -3.8671875 36.5078125 C-6 31.2265625 -6 31.2265625 -6 29 C-7.07507812 28.81244141 -7.07507812 28.81244141 -8.171875 28.62109375 C-11.01059863 27.9976724 -13.55065049 27.13334973 -16.25 26.0625 C-17.12140625 25.72347656 -17.9928125 25.38445313 -18.890625 25.03515625 C-21 24 -21 24 -22 22 C-19.7101766 20.9955866 -17.4183401 19.99632388 -15.125 19 C-14.47402344 18.71382812 -13.82304688 18.42765625 -13.15234375 18.1328125 C-8.2265625 16 -8.2265625 16 -6 16 C-5.81824219 15.43152344 -5.63648438 14.86304688 -5.44921875 14.27734375 C-3.85915366 9.39298997 -2.09540222 4.68970973 0 0 Z " fill="#FFFAFA" transform="translate(1412,509)"/>
<path d="M0 0 C1.46469727 0.00966797 1.46469727 0.00966797 2.95898438 0.01953125 C3.96638672 0.03628906 4.97378906 0.05304688 6.01171875 0.0703125 C7.03845703 0.07933594 8.06519531 0.08835937 9.12304688 0.09765625 C11.64867774 0.12115049 14.17382685 0.15400119 16.69921875 0.1953125 C16.74498801 1.79139764 16.77760612 3.38786343 16.8046875 4.984375 C16.82426514 5.87334473 16.84384277 6.76231445 16.86401367 7.67822266 C16.53923669 12.6388903 13.66456419 15.3241471 10.13671875 18.5078125 C6.19585957 21.23609963 3.01607945 21.38089336 -1.67578125 21.4453125 C-2.79726562 21.47109375 -3.91875 21.496875 -5.07421875 21.5234375 C-8.62649274 21.1621893 -10.44775366 20.29267332 -13.30078125 18.1953125 C-15.86697822 14.77371655 -15.81062179 11.34687117 -15.30078125 7.1953125 C-11.11119161 1.80869725 -6.71796867 -0.07857273 0 0 Z " fill="#FFF8F8" transform="translate(1240.30078125,1304.8046875)"/>
</svg>
